<?xml version="1.0" encoding="UTF-8"?>
<!DOCTYPE svg PUBLIC "-//W3C//DTD SVG 1.1//EN" "http://www.w3.org/Graphics/SVG/1.1/DTD/svg11.dtd">
<svg xmlns="http://www.w3.org/2000/svg" version="1.1" width="577px" height="433px" style="shape-rendering:geometricPrecision; text-rendering:geometricPrecision; image-rendering:optimizeQuality; fill-rule:evenodd; clip-rule:evenodd" xmlns:xlink="http://www.w3.org/1999/xlink">
<g><path style="opacity:1" fill="#cdc388" d="M 273.5,90.5 C 273.5,91.5 273.5,92.5 273.5,93.5C 276.044,93.8957 278.211,93.229 280,91.5C 280.279,93.4122 279.446,94.7456 277.5,95.5C 278.607,97.8466 280.274,98.18 282.5,96.5C 273.252,108.424 263.585,120.091 253.5,131.5C 253.013,130.527 252.513,129.527 252,128.5C 250.392,130.1 248.559,131.433 246.5,132.5C 245.914,132.291 245.414,131.957 245,131.5C 245.476,133.32 245.309,134.987 244.5,136.5C 239.87,133.514 235.203,130.514 230.5,127.5C 229.828,126.733 228.995,126.066 228,125.5C 227.506,127.134 227.34,128.801 227.5,130.5C 227.663,145.022 227.663,159.355 227.5,173.5C 225.24,162.565 224.907,151.565 226.5,140.5C 225.5,140.5 224.5,140.5 223.5,140.5C 223.18,159.243 223.514,177.91 224.5,196.5C 223.167,184.018 222.501,171.185 222.5,158C 222.667,145.167 222.833,132.333 223,119.5C 239.898,109.925 256.731,100.258 273.5,90.5 Z M 277.5,95.5 C 267.341,107.135 257.174,118.802 247,130.5C 241.676,127.78 236.509,124.78 231.5,121.5C 246.373,112.233 261.373,103.233 276.5,94.5C 277.107,94.6236 277.44,94.9569 277.5,95.5 Z"/></g>
<g><path style="opacity:0.039" fill="#483a23" d="M 230.5,127.5 C 229.1,128.1 228.1,129.1 227.5,130.5C 227.34,128.801 227.506,127.134 228,125.5C 228.995,126.066 229.828,126.733 230.5,127.5 Z"/></g>
<g><path style="opacity:1" fill="#e8dc94" d="M 253.5,131.5 C 253.5,131.833 253.5,132.167 253.5,132.5C 274.663,133.332 295.996,133.832 317.5,134C 295.64,135.157 273.64,135.99 251.5,136.5C 251.855,137.522 252.522,138.189 253.5,138.5C 254.167,138.5 254.5,138.833 254.5,139.5C 253.596,140.209 253.263,141.209 253.5,142.5C 252.167,142.5 250.833,142.5 249.5,142.5C 249.062,141.494 248.396,141.494 247.5,142.5C 245.087,141.32 244.087,139.32 244.5,136.5C 245.309,134.987 245.476,133.32 245,131.5C 245.414,131.957 245.914,132.291 246.5,132.5C 248.559,131.433 250.392,130.1 252,128.5C 252.513,129.527 253.013,130.527 253.5,131.5 Z"/></g>
<g><path style="opacity:0.999" fill="#cbc286" d="M 352.5,120.5 C 353.5,141.188 353.833,162.022 353.5,183C 352.761,187.127 352.261,191.294 352,195.5C 351.329,196.252 350.496,196.586 349.5,196.5C 347.459,196.854 345.626,196.854 344,196.5C 343.667,197.167 343.333,197.833 343,198.5C 342.28,196.888 342.446,195.388 343.5,194C 342.833,193.667 342.167,193.333 341.5,193C 343.663,192.755 345.33,191.755 346.5,190C 345.906,189.536 345.239,189.369 344.5,189.5C 344.5,188.833 344.5,188.167 344.5,187.5C 344.338,185.473 344.505,183.473 345,181.5C 346.388,182.554 347.888,182.72 349.5,182C 348.027,181.29 347.36,180.124 347.5,178.5C 347.5,161.167 347.5,143.833 347.5,126.5C 347.918,125.778 348.584,125.278 349.5,125C 346.967,123.967 345.301,122.133 344.5,119.5C 347.273,118.069 349.439,118.736 351,121.5C 351.383,120.944 351.883,120.611 352.5,120.5 Z"/></g>
<g><path style="opacity:1" fill="#cdc488" d="M 244.5,136.5 C 244.087,139.32 245.087,141.32 247.5,142.5C 242.029,157.74 236.362,172.74 230.5,187.5C 230.61,183.39 229.61,179.723 227.5,176.5C 228.75,176.423 229.583,175.756 230,174.5C 234.845,161.747 239.678,149.08 244.5,136.5 Z"/></g>
<g><path style="opacity:1" fill="#d1c88a" d="M 352.5,120.5 C 351.883,120.611 351.383,120.944 351,121.5C 349.439,118.736 347.273,118.069 344.5,119.5C 345.301,122.133 346.967,123.967 349.5,125C 348.584,125.278 347.918,125.778 347.5,126.5C 340.91,129.128 334.577,132.295 328.5,136C 334.387,148.949 339.887,162.116 345,175.5C 345.377,176.942 346.21,177.942 347.5,178.5C 347.36,180.124 348.027,181.29 349.5,182C 347.888,182.72 346.388,182.554 345,181.5C 344.505,183.473 344.338,185.473 344.5,187.5C 344.167,187.5 343.833,187.5 343.5,187.5C 337.761,172.293 331.428,157.293 324.5,142.5C 314.073,161.028 303.406,179.361 292.5,197.5C 292.33,196.178 292.663,195.011 293.5,194C 292.207,193.51 290.873,193.343 289.5,193.5C 299.535,174.62 309.868,155.787 320.5,137C 298.5,136.333 276.5,136.333 254.5,137C 253.944,137.383 253.611,137.883 253.5,138.5C 252.522,138.189 251.855,137.522 251.5,136.5C 273.64,135.99 295.64,135.157 317.5,134C 295.996,133.832 274.663,133.332 253.5,132.5C 275.503,132.667 297.503,132.5 319.5,132C 309.39,119.627 299.39,107.127 289.5,94.5C 288.277,93.3861 286.944,93.2195 285.5,94C 284.627,95.045 283.627,95.8783 282.5,96.5C 280.274,98.18 278.607,97.8466 277.5,95.5C 279.446,94.7456 280.279,93.4122 280,91.5C 278.211,93.229 276.044,93.8957 273.5,93.5C 273.5,92.5 273.5,91.5 273.5,90.5C 278.102,87.5242 282.769,84.5242 287.5,81.5C 309.489,94.1963 331.155,107.196 352.5,120.5 Z M 298.5,95.5 C 313.706,103.442 328.706,111.942 343.5,121C 341.167,122.667 338.833,124.333 336.5,126C 332.639,127.94 328.639,129.273 324.5,130C 315.451,118.709 306.784,107.209 298.5,95.5 Z"/></g>
<g><path style="opacity:0.055" fill="#312f1a" d="M 343.5,187.5 C 343.833,187.5 344.167,187.5 344.5,187.5C 344.5,188.167 344.5,188.833 344.5,189.5C 344.158,190.338 343.492,190.672 342.5,190.5C 343.11,189.609 343.443,188.609 343.5,187.5 Z"/></g>
<g><path style="opacity:1" fill="#e9dc90" d="M 227.5,173.5 C 227.5,174.5 227.5,175.5 227.5,176.5C 229.61,179.723 230.61,183.39 230.5,187.5C 230.5,187.833 230.5,188.167 230.5,188.5C 229.596,189.209 229.263,190.209 229.5,191.5C 233.964,191.598 238.297,192.431 242.5,194C 239.5,194.333 236.5,194.667 233.5,195C 234.337,196.011 234.67,197.178 234.5,198.5C 231.308,198.595 228.308,197.929 225.5,196.5C 225.167,196.5 224.833,196.5 224.5,196.5C 223.514,177.91 223.18,159.243 223.5,140.5C 224.5,140.5 225.5,140.5 226.5,140.5C 224.907,151.565 225.24,162.565 227.5,173.5 Z"/></g>
<g><path style="opacity:1" fill="#dbd18d" d="M 254.5,139.5 C 264.629,157.08 274.796,174.746 285,192.5C 286,193.5 287,194.5 288,195.5C 288.717,194.956 289.217,194.289 289.5,193.5C 290.873,193.343 292.207,193.51 293.5,194C 292.663,195.011 292.33,196.178 292.5,197.5C 292.5,198.167 292.833,198.5 293.5,198.5C 293.918,199.222 294.584,199.722 295.5,200C 293.767,201.189 292.1,202.356 290.5,203.5C 289.207,210.513 289.207,217.513 290.5,224.5C 288.532,226.315 286.198,226.815 283.5,226C 284.756,225.583 285.423,224.75 285.5,223.5C 285.83,217.132 285.496,210.798 284.5,204.5C 272.403,202.137 260.403,199.804 248.5,197.5C 244.338,195.73 244.671,194.73 249.5,194.5C 253.808,195.201 258.141,195.534 262.5,195.5C 269.339,195.641 276.005,196.474 282.5,198C 271.246,179.596 260.246,161.096 249.5,142.5C 250.833,142.5 252.167,142.5 253.5,142.5C 253.263,141.209 253.596,140.209 254.5,139.5 Z"/></g>
<g><path style="opacity:1" fill="#cfc688" d="M 230.5,188.5 C 241.082,191.225 251.749,193.558 262.5,195.5C 258.141,195.534 253.808,195.201 249.5,194.5C 244.671,194.73 244.338,195.73 248.5,197.5C 244.51,196.81 240.51,196.643 236.5,197C 252.265,206.299 268.099,215.465 284,224.5C 284.383,223.944 284.883,223.611 285.5,223.5C 285.423,224.75 284.756,225.583 283.5,226C 286.198,226.815 288.532,226.315 290.5,224.5C 306.663,215.586 322.663,206.419 338.5,197C 322.436,198.477 306.436,200.643 290.5,203.5C 292.1,202.356 293.767,201.189 295.5,200C 294.584,199.722 293.918,199.222 293.5,198.5C 309.761,195.314 326.094,192.647 342.5,190.5C 343.492,190.672 344.158,190.338 344.5,189.5C 345.239,189.369 345.906,189.536 346.5,190C 345.33,191.755 343.663,192.755 341.5,193C 342.167,193.333 342.833,193.667 343.5,194C 342.446,195.388 342.28,196.888 343,198.5C 343.333,197.833 343.667,197.167 344,196.5C 345.626,196.854 347.459,196.854 349.5,196.5C 328.938,208.79 308.272,221.123 287.5,233.5C 266.608,221.139 245.941,208.805 225.5,196.5C 228.308,197.929 231.308,198.595 234.5,198.5C 234.67,197.178 234.337,196.011 233.5,195C 236.5,194.667 239.5,194.333 242.5,194C 238.297,192.431 233.964,191.598 229.5,191.5C 229.263,190.209 229.596,189.209 230.5,188.5 Z M 290.5,224.5 C 289.207,217.513 289.207,210.513 290.5,203.5C 306.436,200.643 322.436,198.477 338.5,197C 322.663,206.419 306.663,215.586 290.5,224.5 Z M 248.5,197.5 C 260.403,199.804 272.403,202.137 284.5,204.5C 285.496,210.798 285.83,217.132 285.5,223.5C 284.883,223.611 284.383,223.944 284,224.5C 268.099,215.465 252.265,206.299 236.5,197C 240.51,196.643 244.51,196.81 248.5,197.5 Z"/></g>
<g><path style="opacity:0.14" fill="#555455" d="M 230.5,257.5 C 235.066,256.203 239.733,256.203 244.5,257.5C 240.083,257.653 235.416,257.653 230.5,257.5 Z"/></g>
<g><path style="opacity:0.995" fill="#f3f3f3" d="M 230.5,257.5 C 235.416,257.653 240.083,257.653 244.5,257.5C 258.794,262.407 264.628,272.407 262,287.5C 255.459,302.137 244.292,307.637 228.5,304C 210.558,295.614 206.391,282.78 216,265.5C 219.809,260.852 224.642,258.185 230.5,257.5 Z M 233.5,276.5 C 234.906,276.027 235.573,275.027 235.5,273.5C 241.425,270.045 243.925,271.712 243,278.5C 241.768,282.933 239.268,286.433 235.5,289C 232.285,289.502 230.619,288.002 230.5,284.5C 231.507,281.81 232.507,279.144 233.5,276.5 Z"/></g>
<g><path style="opacity:0.987" fill="#f1f1f1" d="M 351.5,303.5 C 347.881,304.244 344.215,304.577 340.5,304.5C 325.396,300.266 320.729,290.599 326.5,275.5C 334.793,266.127 344.793,263.961 356.5,269C 364.864,274.884 367.697,282.717 365,292.5C 362.414,298.592 357.914,302.259 351.5,303.5 Z M 347.5,278.5 C 350.077,279.69 350.91,281.69 350,284.5C 348.699,288.301 346.199,290.968 342.5,292.5C 341.119,292 340.453,291 340.5,289.5C 341.597,284.956 343.93,281.289 347.5,278.5 Z"/></g>
<g><path style="opacity:0.986" fill="#f0f0f0" d="M 265.5,268.5 C 271.5,268.5 277.5,268.5 283.5,268.5C 283.259,271.794 284.092,274.794 286,277.5C 288.372,273.795 291.372,270.795 295,268.5C 298.613,270.458 301.28,273.458 303,277.5C 304.688,274.774 306.188,271.941 307.5,269C 312.351,268.066 317.017,268.399 321.5,270C 317.21,281.036 313.21,292.203 309.5,303.5C 307.579,304.641 305.579,304.808 303.5,304C 300.333,299.5 297.167,295 294,290.5C 290.862,295.271 287.362,299.771 283.5,304C 281.527,304.495 279.527,304.662 277.5,304.5C 273.494,292.491 269.494,280.491 265.5,268.5 Z"/></g>
<g><path style="opacity:0.02" fill="#4a494a" d="M 235.5,273.5 C 235.573,275.027 234.906,276.027 233.5,276.5C 233.427,274.973 234.094,273.973 235.5,273.5 Z"/></g>
<g><path style="opacity:0.204" fill="#636162" d="M 351.5,303.5 C 349.71,304.997 347.544,305.664 345,305.5C 343.293,305.492 341.793,305.158 340.5,304.5C 344.215,304.577 347.881,304.244 351.5,303.5 Z"/></g>
<g><path style="opacity:0.973" fill="#b39c2d" d="M 172.5,335.5 C 175.898,335.18 179.232,335.513 182.5,336.5C 178.64,339.097 177.64,342.597 179.5,347C 178.437,348.188 177.103,348.688 175.5,348.5C 175.5,344.833 175.5,341.167 175.5,337.5C 173.821,337.715 172.821,337.048 172.5,335.5 Z"/></g>
<g><path style="opacity:0.42" fill="#af9a2c" d="M 330.5,334.5 C 331.458,334.953 332.292,335.619 333,336.5C 335.231,340.229 336.731,344.229 337.5,348.5C 336.448,348.649 335.448,348.483 334.5,348C 333.881,346.243 332.714,345.076 331,344.5C 329.667,345.833 328.333,347.167 327,348.5C 325.941,348.37 325.108,347.87 324.5,347C 326.977,343.071 328.977,338.904 330.5,334.5 Z"/></g>
<g><path style="opacity:0.294" fill="#c3b238" d="M 437.5,338.5 C 436.681,341.305 436.181,344.305 436,347.5C 435.802,345.618 435.302,343.952 434.5,342.5C 434.5,340.833 434.5,339.167 434.5,337.5C 433.325,337.719 432.325,337.386 431.5,336.5C 434.5,335.167 437.5,335.167 440.5,336.5C 439.995,337.919 438.995,338.585 437.5,338.5 Z"/></g>
<g><path style="opacity:0.773" fill="#a79436" d="M 122.5,333.5 C 125.999,333.259 126.332,334.092 123.5,336C 123.833,336.333 124.167,336.667 124.5,337C 122.715,338.163 120.715,338.83 118.5,339C 120.134,339.494 121.801,339.66 123.5,339.5C 123.5,340.833 123.5,342.167 123.5,343.5C 121.712,343.215 120.045,343.548 118.5,344.5C 120.006,345.747 121.506,345.747 123,344.5C 124.113,345.76 124.28,346.927 123.5,348C 121.19,348.497 118.857,348.663 116.5,348.5C 116.5,344.167 116.5,339.833 116.5,335.5C 118.898,335.741 120.898,335.074 122.5,333.5 Z"/></g>
<g><path style="opacity:0.71" fill="#aa942e" d="M 162.5,333.5 C 163.613,334.946 163.78,336.613 163,338.5C 161.403,341.886 159.903,345.22 158.5,348.5C 157.391,344.281 155.725,340.281 153.5,336.5C 155.826,334.551 158.326,334.218 161,335.5C 162.03,335.164 162.53,334.497 162.5,333.5 Z"/></g>
<g><path style="opacity:0.004" fill="#000000" d="M 354.5,338.5 C 355.833,339.167 355.833,339.167 354.5,338.5 Z"/></g>
<g><path style="opacity:0.965" fill="#c2ac30" d="M 307.5,335.5 C 309.924,335.192 312.257,335.526 314.5,336.5C 316.007,338.969 315.673,341.135 313.5,343C 314.313,344.314 315.313,345.481 316.5,346.5C 315.965,348.101 314.965,348.601 313.5,348C 312.333,346.833 311.167,345.667 310,344.5C 309.781,345.938 309.281,347.271 308.5,348.5C 307.914,348.291 307.414,347.957 307,347.5C 306.393,343.463 306.56,339.463 307.5,335.5 Z M 309.5,338.5 C 314.532,338.332 314.699,339.332 310,341.5C 309.517,340.552 309.351,339.552 309.5,338.5 Z"/></g>
<g><path style="opacity:0.725" fill="#bda93b" d="M 197.5,342.5 C 196.167,342.5 194.833,342.5 193.5,342.5C 193.843,344.483 193.176,345.817 191.5,346.5C 192.521,342.896 192.521,339.229 191.5,335.5C 192.5,335.5 193.5,335.5 194.5,335.5C 194.5,336.833 194.5,338.167 194.5,339.5C 196.167,339.5 197.833,339.5 199.5,339.5C 199.5,338.167 199.5,336.833 199.5,335.5C 200.5,335.5 201.5,335.5 202.5,335.5C 202.836,339.52 203.17,343.353 203.5,347C 202.725,348.23 201.725,348.563 200.5,348C 200.12,345.674 199.12,343.841 197.5,342.5 Z"/></g>
<g><path style="opacity:0.341" fill="#bca629" d="M 231.5,342.5 C 230.791,341.596 229.791,341.263 228.5,341.5C 228.5,339.5 228.5,337.5 228.5,335.5C 231.044,336.468 233.211,338.135 235,340.5C 235.197,338.139 236.364,336.472 238.5,335.5C 239.197,339.377 239.864,343.21 240.5,347C 239.975,347.692 239.308,348.192 238.5,348.5C 236.122,346.448 233.789,344.448 231.5,342.5 Z"/></g>
<g><path style="opacity:0.855" fill="#8c7b2e" d="M 359.5,342.5 C 358.175,341.047 357.342,341.381 357,343.5C 356.283,342.956 355.783,342.289 355.5,341.5C 356.341,339.621 356.675,337.621 356.5,335.5C 357.5,335.5 358.5,335.5 359.5,335.5C 359.5,337.833 359.5,340.167 359.5,342.5 Z"/></g>
<g><path style="opacity:0.125" fill="#736525" d="M 213.5,335.5 C 214.649,335.791 215.316,336.624 215.5,338C 216.286,341.458 216.62,344.958 216.5,348.5C 215.5,348.5 214.5,348.5 213.5,348.5C 213.5,344.167 213.5,339.833 213.5,335.5 Z"/></g>
<g><path style="opacity:0.463" fill="#cab632" d="M 349.5,335.5 C 351.457,337.491 353.457,339.491 355.5,341.5C 355.783,342.289 356.283,342.956 357,343.5C 357.342,341.381 358.175,341.047 359.5,342.5C 359.799,344.604 359.466,346.604 358.5,348.5C 355.814,346.144 353.147,343.811 350.5,341.5C 349.603,342.681 349.103,344.681 349,347.5C 348.188,343.311 348.355,339.311 349.5,335.5 Z"/></g>
<g><path style="opacity:0.91" fill="#b5a02e" d="M 371.5,335.5 C 373.833,335.5 376.167,335.5 378.5,335.5C 378.421,336.93 378.754,338.264 379.5,339.5C 377.252,340.324 377.086,341.324 379,342.5C 379.441,348.203 376.941,349.87 371.5,347.5C 368.991,345.41 369.325,343.577 372.5,342C 370.176,340.175 369.843,338.009 371.5,335.5 Z M 373.5,343.5 C 376.336,343.202 376.836,343.869 375,345.5C 374.283,344.956 373.783,344.289 373.5,343.5 Z"/></g>
<g><path style="opacity:0.843" fill="#bea729" d="M 488.5,334.5 C 490.74,335.568 492.574,337.234 494,339.5C 494.941,334.48 497.108,333.647 500.5,337C 499.693,340.719 499.36,344.386 499.5,348C 498.833,348.667 498.167,348.667 497.5,348C 496,345.833 494.167,344 492,342.5C 491.767,344.78 490.934,346.78 489.5,348.5C 487.983,343.765 487.65,339.099 488.5,334.5 Z"/></g>
<g><path style="opacity:0.067" fill="#af992e" d="M 75.5,335.5 C 78.2469,335.187 80.9135,335.52 83.5,336.5C 83.7186,340.495 83.7186,344.495 83.5,348.5C 80.8333,348.5 78.1667,348.5 75.5,348.5C 75.5,344.167 75.5,339.833 75.5,335.5 Z"/></g>
<g><path style="opacity:0.914" fill="#bfa932" d="M 393.5,335.5 C 394.5,335.5 395.5,335.5 396.5,335.5C 397.97,339.912 399.637,344.245 401.5,348.5C 400.167,348.5 398.833,348.5 397.5,348.5C 397.616,345.09 395.95,343.756 392.5,344.5C 392.752,347.932 391.419,348.932 388.5,347.5C 390.181,343.442 391.848,339.442 393.5,335.5 Z"/></g>
<g><path style="opacity:0.18" fill="#9c8924" d="M 135.5,335.5 C 135.564,339.22 136.064,342.886 137,346.5C 137.483,345.552 137.649,344.552 137.5,343.5C 141.5,342.833 141.5,342.167 137.5,341.5C 137.263,340.209 137.596,339.209 138.5,338.5C 139.167,341.167 139.833,341.167 140.5,338.5C 141.222,338.918 141.722,339.584 142,340.5C 142.49,339.207 142.657,337.873 142.5,336.5C 144.002,338.863 143.668,341.03 141.5,343C 142.376,344.586 143.376,346.086 144.5,347.5C 142.182,348.834 140.515,348.168 139.5,345.5C 138.585,347.98 137.085,348.647 135,347.5C 134.188,343.311 134.355,339.311 135.5,335.5 Z M 138.5,338.5 C 139.167,338.5 139.833,338.5 140.5,338.5C 139.833,341.167 139.167,341.167 138.5,338.5 Z"/></g>
<g><path style="opacity:0.752" fill="#a6942a" d="M 287.5,335.5 C 290.572,335.183 293.572,335.516 296.5,336.5C 295.273,337.59 294.44,338.924 294,340.5C 293.818,343.226 293.318,345.893 292.5,348.5C 291.833,345.167 291.167,341.833 290.5,338.5C 288.787,338.121 287.787,337.121 287.5,335.5 Z"/></g>
<g><path style="opacity:0.592" fill="#d9be26" d="M 142.5,336.5 C 142.657,337.873 142.49,339.207 142,340.5C 141.722,339.584 141.222,338.918 140.5,338.5C 139.833,338.5 139.167,338.5 138.5,338.5C 137.596,339.209 137.263,340.209 137.5,341.5C 141.5,342.167 141.5,342.833 137.5,343.5C 137.649,344.552 137.483,345.552 137,346.5C 136.064,342.886 135.564,339.22 135.5,335.5C 135.435,335.062 135.601,334.728 136,334.5C 138.277,335.117 140.444,335.784 142.5,336.5 Z M 138.5,338.5 C 139.167,338.5 139.833,338.5 140.5,338.5C 139.833,341.167 139.167,341.167 138.5,338.5 Z"/></g>
<g><path style="opacity:0.847" fill="#998b49" d="M 228.5,341.5 C 229.791,341.263 230.791,341.596 231.5,342.5C 229.698,350.542 228.698,350.208 228.5,341.5 Z"/></g>
<g><path style="opacity:0.106" fill="#564914" d="M 349.5,335.5 C 348.355,339.311 348.188,343.311 349,347.5C 349.103,344.681 349.603,342.681 350.5,341.5C 350.5,343.833 350.5,346.167 350.5,348.5C 349.5,348.5 348.5,348.5 347.5,348.5C 347.173,343.786 347.507,339.12 348.5,334.5C 349.107,334.624 349.44,334.957 349.5,335.5 Z"/></g>
<g><path style="opacity:0.831" fill="#b59a2f" d="M 96.5,334.5 C 99.1125,335.095 99.1125,335.929 96.5,337C 97.2529,338.487 98.0862,338.654 99,337.5C 99.3333,338.5 99.6667,339.5 100,340.5C 101.02,339.109 101.853,337.609 102.5,336C 103.448,335.517 104.448,335.351 105.5,335.5C 104.567,338.927 103.4,342.26 102,345.5C 101.632,346.91 100.799,347.91 99.5,348.5C 96.72,344.478 94.72,340.145 93.5,335.5C 94.791,335.737 95.791,335.404 96.5,334.5 Z"/></g>
<g><path style="opacity:0.627" fill="#b39b2f" d="M 252.5,335.5 C 255.777,335.216 258.943,335.549 262,336.5C 262.233,338.78 263.066,340.78 264.5,342.5C 261.23,349.18 256.73,350.18 251,345.5C 249.261,341.924 249.761,338.591 252.5,335.5 Z M 255.5,344.5 C 252.584,341.456 253.251,339.123 257.5,337.5C 261.43,339.272 261.097,340.438 256.5,341C 255.663,342.011 255.33,343.178 255.5,344.5 Z"/></g>
<g><path style="opacity:0.673" fill="#b9a230" d="M 466.5,335.5 C 477.436,334.55 480.103,338.717 474.5,348C 464.468,348.79 461.802,344.623 466.5,335.5 Z M 469.5,337.5 C 475.839,339.833 476.006,342.499 470,345.5C 468.286,344.924 467.119,343.757 466.5,342C 467.386,340.385 468.386,338.885 469.5,337.5 Z"/></g>
<g><path style="opacity:0.898" fill="#716331" d="M 197.5,342.5 C 196.791,343.404 195.791,343.737 194.5,343.5C 194.785,345.288 194.452,346.955 193.5,348.5C 192.478,348.145 191.811,347.478 191.5,346.5C 193.176,345.817 193.843,344.483 193.5,342.5C 194.833,342.5 196.167,342.5 197.5,342.5 Z"/></g>
<g><path style="opacity:0.635" fill="#b5a333" d="M 419.5,334.5 C 421.176,335.183 421.843,336.517 421.5,338.5C 417.725,336.726 415.058,337.726 413.5,341.5C 413.703,343.208 414.536,344.541 416,345.5C 417.699,344.594 419.533,344.261 421.5,344.5C 421.67,345.822 421.337,346.989 420.5,348C 414.661,350.039 411.328,348.039 410.5,342C 410.439,339.739 411.106,337.739 412.5,336C 415.036,335.814 417.369,335.314 419.5,334.5 Z"/></g>
<g><path style="opacity:0.012" fill="#62590d" d="M 437.5,338.5 C 437.5,341.833 437.5,345.167 437.5,348.5C 436.5,348.5 435.5,348.5 434.5,348.5C 434.5,346.5 434.5,344.5 434.5,342.5C 435.302,343.952 435.802,345.618 436,347.5C 436.181,344.305 436.681,341.305 437.5,338.5 Z"/></g>
</svg>
