<?xml version="1.0" encoding="UTF-8"?>
<!DOCTYPE svg PUBLIC "-//W3C//DTD SVG 1.1//EN" "http://www.w3.org/Graphics/SVG/1.1/DTD/svg11.dtd">
<svg xmlns="http://www.w3.org/2000/svg" version="1.1" width="2000px" height="1500px" style="shape-rendering:geometricPrecision; text-rendering:geometricPrecision; image-rendering:optimizeQuality; fill-rule:evenodd; clip-rule:evenodd" xmlns:xlink="http://www.w3.org/1999/xlink">
<g><path style="opacity:1" fill="#302e2e" d="M -0.5,-0.5 C 666.167,-0.5 1332.83,-0.5 1999.5,-0.5C 1999.5,499.5 1999.5,999.5 1999.5,1499.5C 1332.83,1499.5 666.167,1499.5 -0.5,1499.5C -0.5,999.5 -0.5,499.5 -0.5,-0.5 Z"/></g>
<g><path style="opacity:1" fill="#e6da8c" d="M 996.5,288.5 C 1071.52,331.097 1146.36,374.097 1221,417.5C 1221.67,503.833 1221.67,590.167 1221,676.5C 1146.58,719.626 1072.08,762.626 997.5,805.5C 923.003,762.753 848.67,719.753 774.5,676.5C 773.167,590.167 773.167,503.833 774.5,417.5C 848.563,374.473 922.563,331.473 996.5,288.5 Z"/></g>
<g><path style="opacity:1" fill="#302e2e" d="M 1113.5,460.5 C 1034.33,460.833 955.332,460.499 876.5,459.5C 916.36,411.121 956.693,363.121 997.5,315.5C 1036.4,363.642 1075.07,411.975 1113.5,460.5 Z"/></g>
<g><path style="opacity:1" fill="#312f2e" d="M 1016.5,316.5 C 1016.9,315.475 1017.56,315.308 1018.5,316C 1078.83,351 1139.17,386 1199.5,421C 1176.13,434.184 1152.46,446.517 1128.5,458C 1091.3,410.646 1053.97,363.48 1016.5,316.5 Z"/></g>
<g><path style="opacity:1" fill="#312f2e" d="M 976.5,315.5 C 977.239,315.369 977.906,315.536 978.5,316C 938.476,363.223 898.809,410.723 859.5,458.5C 838.002,446.252 816.669,433.752 795.5,421C 856.224,386.311 916.558,351.145 976.5,315.5 Z"/></g>
<g><path style="opacity:1" fill="#5f5a46" d="M 1206.5,433.5 C 1206.56,432.957 1206.89,432.624 1207.5,432.5C 1208.67,502.498 1208.83,572.498 1208,642.5C 1207.49,641.473 1206.99,640.473 1206.5,639.5C 1207.83,570.833 1207.83,502.167 1206.5,433.5 Z"/></g>
<g><path style="opacity:1" fill="#49463b" d="M 789.5,434.5 C 788.167,501.833 788.167,569.167 789.5,636.5C 789.013,637.473 788.513,638.473 788,639.5C 787.167,570.831 787.333,502.164 788.5,433.5C 789.107,433.624 789.44,433.957 789.5,434.5 Z"/></g>
<g><path style="opacity:1" fill="#302e2e" d="M 1206.5,433.5 C 1207.83,502.167 1207.83,570.833 1206.5,639.5C 1183.58,583.168 1160.25,527.001 1136.5,471C 1159.41,457.712 1182.74,445.212 1206.5,433.5 Z"/></g>
<g><path style="opacity:1" fill="#302e2e" d="M 789.5,434.5 C 810.772,446.138 831.772,458.305 852.5,471C 831.357,526.118 810.357,581.284 789.5,636.5C 788.167,569.167 788.167,501.833 789.5,434.5 Z"/></g>
<g><path style="opacity:1" fill="#aba26d" d="M 876.5,459.5 C 955.332,460.499 1034.33,460.833 1113.5,460.5C 1034.33,461.832 954.999,461.832 875.5,460.5C 875.624,459.893 875.957,459.56 876.5,459.5 Z"/></g>
<g><path style="opacity:1" fill="#302e2e" d="M 873.5,475.5 C 954.001,474.168 1034.67,474.168 1115.5,475.5C 1076.17,545.5 1036.83,615.5 997.5,685.5C 956.14,615.437 914.807,545.437 873.5,475.5 Z"/></g>
<g><path style="opacity:1" fill="#302e2e" d="M 861.5,483.5 C 863.796,485.401 865.629,487.734 867,490.5C 905.789,557.247 944.955,623.747 984.5,690C 921.546,680.175 858.546,670.342 795.5,660.5C 817.215,601.401 839.215,542.401 861.5,483.5 Z"/></g>
<g><path style="opacity:1" fill="#302e2e" d="M 1126.5,483.5 C 1151.4,542.194 1175.74,601.194 1199.5,660.5C 1137.63,670.228 1075.8,680.228 1014,690.5C 1013.17,690.167 1012.33,689.833 1011.5,689.5C 1049.86,620.816 1088.19,552.15 1126.5,483.5 Z"/></g>
<g><path style="opacity:1" fill="#302e2e" d="M 800.5,676.5 C 801.097,675.861 801.93,675.528 803,675.5C 865.43,686.014 927.93,696.014 990.5,705.5C 990.667,732.169 990.5,758.835 990,785.5C 926.928,748.911 863.761,712.578 800.5,676.5 Z"/></g>
<g><path style="opacity:1" fill="#312f2e" d="M 1189.5,675.5 C 1194.51,675.01 1195.17,675.843 1191.5,678C 1129.25,713.707 1067.09,749.54 1005,785.5C 1004.5,758.835 1004.33,732.169 1004.5,705.5C 1066.33,695.729 1128,685.729 1189.5,675.5 Z"/></g>
<g><path style="opacity:1" fill="#fdfdfd" d="M 806.5,892.5 C 833.602,889.431 858.269,895.598 880.5,911C 908.629,936.958 916.463,968.125 904,1004.5C 890.122,1033.88 866.955,1050.71 834.5,1055C 792.011,1059.34 760.844,1042.84 741,1005.5C 726.675,964.594 736.842,931.428 771.5,906C 782.466,899.405 794.133,894.905 806.5,892.5 Z"/></g>
<g><path style="opacity:1" fill="#fdfdfd" d="M 1184.5,926.5 C 1203.68,925.023 1221.68,928.856 1238.5,938C 1264.03,956.916 1272.19,981.749 1263,1012.5C 1252.11,1037.7 1232.95,1051.87 1205.5,1055C 1174.76,1058.21 1150.93,1047.04 1134,1021.5C 1118.79,987.169 1126.29,959.002 1156.5,937C 1165.35,931.779 1174.68,928.279 1184.5,926.5 Z"/></g>
<g><path style="opacity:1" fill="#828181" d="M 978.5,931.5 C 960.136,930.847 942.136,931.513 924.5,933.5C 923.596,932.791 923.263,931.791 923.5,930.5C 942.008,930.17 960.341,930.503 978.5,931.5 Z"/></g>
<g><path style="opacity:1" fill="#838282" d="M 1068.5,931.5 C 1082.99,930.504 1097.66,930.171 1112.5,930.5C 1112.74,931.791 1112.4,932.791 1111.5,933.5C 1097.54,931.517 1083.21,930.85 1068.5,931.5 Z"/></g>
<g><path style="opacity:1" fill="#fdfdfd" d="M 978.5,931.5 C 982.635,944.571 986.968,957.571 991.5,970.5C 1000.86,958.308 1010.03,945.974 1019,933.5C 1021.89,931.327 1025.06,930.994 1028.5,932.5C 1037.53,945.029 1046.36,957.695 1055,970.5C 1059.24,957.279 1063.74,944.279 1068.5,931.5C 1083.21,930.85 1097.54,931.517 1111.5,933.5C 1097.97,973.422 1084.64,1013.42 1071.5,1053.5C 1066.16,1053.67 1060.82,1053.5 1055.5,1053C 1043.7,1036.55 1032.03,1020.05 1020.5,1003.5C 1008.01,1019.5 995.673,1035.67 983.5,1052C 977.804,1052.83 972.137,1052.66 966.5,1051.5C 952.483,1012.14 938.483,972.808 924.5,933.5C 942.136,931.513 960.136,930.847 978.5,931.5 Z"/></g>
<g><path style="opacity:1" fill="#312f2f" d="M 828.5,939.5 C 836.999,938.039 843.166,941.039 847,948.5C 847.811,970.051 839.978,987.885 823.5,1002C 812.384,1008.6 804.217,1006.1 799,994.5C 798.871,970.754 808.704,952.421 828.5,939.5 Z"/></g>
<g><path style="opacity:1" fill="#323030" d="M 1206.5,964.5 C 1217.3,964.408 1221.8,969.742 1220,980.5C 1215.51,995.985 1206.35,1007.82 1192.5,1016C 1185.93,1017.96 1181.43,1015.8 1179,1009.5C 1178.16,1004.08 1178.49,998.746 1180,993.5C 1185.61,980.734 1194.44,971.067 1206.5,964.5 Z"/></g>
<g><path style="opacity:1" fill="#5b5323" d="M 794.5,1162.5 C 793.504,1176.66 793.171,1190.99 793.5,1205.5C 792.174,1190.99 792.174,1176.33 793.5,1161.5C 794.107,1161.62 794.44,1161.96 794.5,1162.5 Z"/></g>
<g><path style="opacity:1" fill="#dec103" d="M 794.5,1162.5 C 804.828,1172.99 814.994,1183.66 825,1194.5C 825.5,1184.17 825.666,1173.84 825.5,1163.5C 827.167,1163.5 828.833,1163.5 830.5,1163.5C 830.667,1178.17 830.5,1192.84 830,1207.5C 820.03,1196.53 809.697,1185.86 799,1175.5C 798.5,1185.49 798.334,1195.49 798.5,1205.5C 796.833,1205.5 795.167,1205.5 793.5,1205.5C 793.171,1190.99 793.504,1176.66 794.5,1162.5 Z"/></g>
<g><path style="opacity:1" fill="#ddc004" d="M 906.5,1190.5 C 907.043,1190.44 907.376,1190.11 907.5,1189.5C 902.88,1188.51 898.214,1188.17 893.5,1188.5C 893.5,1187.17 893.5,1185.83 893.5,1184.5C 899.833,1184.5 906.167,1184.5 912.5,1184.5C 912.543,1195.27 907.543,1202.43 897.5,1206C 877.868,1206.61 869.368,1197.11 872,1177.5C 879.027,1163.38 889.861,1159.54 904.5,1166C 906.351,1167.68 908.018,1169.52 909.5,1171.5C 909.023,1172.48 908.357,1173.31 907.5,1174C 904.504,1172.09 901.171,1170.42 897.5,1169C 885.744,1166.92 878.744,1171.75 876.5,1183.5C 877.407,1197.46 884.74,1202.96 898.5,1200C 902.47,1197.87 905.137,1194.7 906.5,1190.5 Z"/></g>
<g><path style="opacity:1" fill="#dcbe05" d="M 1149.5,1161.5 C 1156.35,1175.88 1162.68,1190.54 1168.5,1205.5C 1166.53,1205.74 1164.7,1205.41 1163,1204.5C 1161.77,1201.05 1160.27,1197.71 1158.5,1194.5C 1152.54,1193.5 1146.54,1193.17 1140.5,1193.5C 1139.47,1197.24 1138.13,1200.91 1136.5,1204.5C 1134.5,1205.83 1132.5,1205.83 1130.5,1204.5C 1137.03,1190.22 1143.37,1175.89 1149.5,1161.5 Z"/></g>
<g><path style="opacity:1" fill="#dbbe06" d="M 1238.5,1193.5 C 1238.56,1194.04 1238.89,1194.38 1239.5,1194.5C 1240.5,1184.19 1240.83,1173.85 1240.5,1163.5C 1241.83,1163.5 1243.17,1163.5 1244.5,1163.5C 1244.83,1178.01 1244.5,1192.34 1243.5,1206.5C 1233.47,1196.47 1223.8,1186.13 1214.5,1175.5C 1214.44,1174.96 1214.11,1174.62 1213.5,1174.5C 1212.5,1184.81 1212.17,1195.15 1212.5,1205.5C 1210.83,1205.5 1209.17,1205.5 1207.5,1205.5C 1207.33,1190.83 1207.5,1176.16 1208,1161.5C 1218.4,1172.01 1228.57,1182.67 1238.5,1193.5 Z"/></g>
<g><path style="opacity:1" fill="#dabd06" d="M 1297.5,1162.5 C 1304.64,1162.4 1309.97,1165.4 1313.5,1171.5C 1312.56,1172.55 1311.4,1173.22 1310,1173.5C 1307.89,1172.39 1306.05,1170.89 1304.5,1169C 1301.5,1168.33 1298.5,1168.33 1295.5,1169C 1292.83,1172 1292.83,1175 1295.5,1178C 1299.71,1180.27 1304.05,1182.27 1308.5,1184C 1315.17,1190.67 1315.17,1197.33 1308.5,1204C 1298.49,1208.51 1290.82,1205.84 1285.5,1196C 1286.67,1194.92 1288,1194.08 1289.5,1193.5C 1291.51,1195.01 1293.17,1196.84 1294.5,1199C 1299.42,1202.6 1303.92,1202.1 1308,1197.5C 1309.29,1193.42 1308.13,1190.25 1304.5,1188C 1298.07,1186.71 1292.9,1183.54 1289,1178.5C 1286.9,1170.37 1289.73,1165.04 1297.5,1162.5 Z"/></g>
<g><path style="opacity:1" fill="#dcbf05" d="M 1369.5,1161.5 C 1376.39,1175.62 1383.06,1189.96 1389.5,1204.5C 1387.5,1205.83 1385.5,1205.83 1383.5,1204.5C 1381.73,1201.03 1380.07,1197.53 1378.5,1194C 1372.83,1193.33 1367.17,1193.33 1361.5,1194C 1359.81,1197.4 1358.31,1200.9 1357,1204.5C 1354.94,1205.59 1352.77,1205.76 1350.5,1205C 1356.97,1190.55 1363.31,1176.05 1369.5,1161.5 Z"/></g>
<g><path style="opacity:1" fill="#d9bc07" d="M 1443.5,1162.5 C 1449.73,1161.86 1455.23,1163.52 1460,1167.5C 1460.67,1169.5 1460.67,1171.5 1460,1173.5C 1448.29,1165.13 1438.95,1167.13 1432,1179.5C 1430.38,1195.55 1437.55,1202.38 1453.5,1200C 1456.1,1199.12 1458.27,1197.62 1460,1195.5C 1460.67,1197.83 1460.67,1200.17 1460,1202.5C 1446.81,1209.65 1436.14,1206.99 1428,1194.5C 1422.77,1178.67 1427.93,1168 1443.5,1162.5 Z"/></g>
<g><path style="opacity:1" fill="#baa111" d="M 1525.5,1168.5 C 1525.5,1167.17 1525.5,1165.83 1525.5,1164.5C 1516.83,1164.5 1508.17,1164.5 1499.5,1164.5C 1499.5,1165.83 1499.5,1167.17 1499.5,1168.5C 1498.55,1167.08 1498.22,1165.41 1498.5,1163.5C 1507.83,1163.5 1517.17,1163.5 1526.5,1163.5C 1526.78,1165.41 1526.45,1167.08 1525.5,1168.5 Z"/></g>
<g><path style="opacity:1" fill="#dcbf05" d="M 1628.5,1162.5 C 1647.36,1163.19 1655.52,1172.85 1653,1191.5C 1648.26,1202.95 1639.76,1207.79 1627.5,1206C 1612.7,1200.3 1607.86,1189.8 1613,1174.5C 1616.7,1168.42 1621.86,1164.42 1628.5,1162.5 Z"/></g>
<g><path style="opacity:1" fill="#e1c302" d="M 1701.5,1176.5 C 1701.22,1175.71 1700.72,1175.04 1700,1174.5C 1699.5,1184.83 1699.33,1195.16 1699.5,1205.5C 1697.83,1205.5 1696.17,1205.5 1694.5,1205.5C 1694.33,1190.83 1694.5,1176.16 1695,1161.5C 1705.33,1172.5 1715.67,1183.5 1726,1194.5C 1726.5,1184.17 1726.67,1173.84 1726.5,1163.5C 1728.17,1163.5 1729.83,1163.5 1731.5,1163.5C 1731.67,1178.17 1731.5,1192.84 1731,1207.5C 1721.3,1196.97 1711.47,1186.64 1701.5,1176.5 Z"/></g>
<g><path style="opacity:1" fill="#e0c202" d="M 264.5,1163.5 C 272.5,1163.5 280.5,1163.5 288.5,1163.5C 288.5,1165.17 288.5,1166.83 288.5,1168.5C 282.167,1168.5 275.833,1168.5 269.5,1168.5C 269.5,1172.5 269.5,1176.5 269.5,1180.5C 275.5,1180.5 281.5,1180.5 287.5,1180.5C 287.5,1182.17 287.5,1183.83 287.5,1185.5C 281.5,1185.5 275.5,1185.5 269.5,1185.5C 269.5,1190.5 269.5,1195.5 269.5,1200.5C 275.833,1200.5 282.167,1200.5 288.5,1200.5C 288.5,1202.17 288.5,1203.83 288.5,1205.5C 280.5,1205.5 272.5,1205.5 264.5,1205.5C 264.5,1191.5 264.5,1177.5 264.5,1163.5 Z"/></g>
<g><path style="opacity:1" fill="#dbbe05" d="M 327.5,1163.5 C 329.467,1163.26 331.301,1163.59 333,1164.5C 337.243,1174.65 341.743,1184.65 346.5,1194.5C 351.419,1184.41 355.752,1174.08 359.5,1163.5C 361.5,1163.5 363.5,1163.5 365.5,1163.5C 359.992,1178.18 353.659,1192.52 346.5,1206.5C 339.341,1192.52 333.008,1178.18 327.5,1163.5 Z"/></g>
<g><path style="opacity:1" fill="#b19a0f" d="M 428.5,1168.5 C 428.5,1167.17 428.5,1165.83 428.5,1164.5C 420.833,1164.5 413.167,1164.5 405.5,1164.5C 405.5,1178.17 405.5,1191.83 405.5,1205.5C 404.504,1191.68 404.171,1177.68 404.5,1163.5C 412.833,1163.5 421.167,1163.5 429.5,1163.5C 429.784,1165.41 429.451,1167.08 428.5,1168.5 Z"/></g>
<g><path style="opacity:1" fill="#e2c402" d="M 428.5,1168.5 C 422.5,1168.5 416.5,1168.5 410.5,1168.5C 410.5,1172.5 410.5,1176.5 410.5,1180.5C 416.167,1180.5 421.833,1180.5 427.5,1180.5C 427.5,1182.17 427.5,1183.83 427.5,1185.5C 421.833,1185.5 416.167,1185.5 410.5,1185.5C 409.512,1190.64 409.179,1195.97 409.5,1201.5C 415.833,1201.5 422.167,1201.5 428.5,1201.5C 428.5,1202.83 428.5,1204.17 428.5,1205.5C 420.833,1205.5 413.167,1205.5 405.5,1205.5C 405.5,1191.83 405.5,1178.17 405.5,1164.5C 413.167,1164.5 420.833,1164.5 428.5,1164.5C 428.5,1165.83 428.5,1167.17 428.5,1168.5 Z"/></g>
<g><path style="opacity:1" fill="#dfc103" d="M 482.5,1189.5 C 480.735,1188.54 478.735,1188.21 476.5,1188.5C 476.5,1194.17 476.5,1199.83 476.5,1205.5C 474.833,1205.5 473.167,1205.5 471.5,1205.5C 471.5,1191.5 471.5,1177.5 471.5,1163.5C 477.925,1163.13 484.258,1163.63 490.5,1165C 497.343,1169.2 499.176,1175.03 496,1182.5C 493.713,1185.46 490.88,1187.63 487.5,1189C 491.5,1194.33 495.5,1199.67 499.5,1205C 497.098,1205.81 494.765,1205.65 492.5,1204.5C 489.141,1199.48 485.807,1194.48 482.5,1189.5 Z"/></g>
<g><path style="opacity:1" fill="#dec103" d="M 534.5,1164.5 C 536.56,1163.19 538.726,1163.19 541,1164.5C 544.333,1170.5 547.667,1176.5 551,1182.5C 554.333,1176.5 557.667,1170.5 561,1164.5C 563.064,1163.41 565.231,1163.24 567.5,1164C 563.377,1171.75 558.877,1179.25 554,1186.5C 553.5,1192.82 553.334,1199.16 553.5,1205.5C 551.833,1205.5 550.167,1205.5 548.5,1205.5C 548.666,1199.16 548.5,1192.82 548,1186.5C 543.726,1178.94 539.226,1171.6 534.5,1164.5 Z"/></g>
<g><path style="opacity:1" fill="#d4b808" d="M 602.5,1163.5 C 611.5,1163.5 620.5,1163.5 629.5,1163.5C 629.5,1165.17 629.5,1166.83 629.5,1168.5C 625.833,1168.5 622.167,1168.5 618.5,1168.5C 618.5,1180.83 618.5,1193.17 618.5,1205.5C 616.5,1205.5 614.5,1205.5 612.5,1205.5C 612.5,1193.17 612.5,1180.83 612.5,1168.5C 609.167,1168.5 605.833,1168.5 602.5,1168.5C 602.5,1166.83 602.5,1165.17 602.5,1163.5 Z"/></g>
<g><path style="opacity:1" fill="#e2c401" d="M 668.5,1163.5 C 670.167,1163.5 671.833,1163.5 673.5,1163.5C 673.5,1169.17 673.5,1174.83 673.5,1180.5C 681.167,1180.5 688.833,1180.5 696.5,1180.5C 696.5,1174.83 696.5,1169.17 696.5,1163.5C 698.167,1163.5 699.833,1163.5 701.5,1163.5C 701.5,1177.5 701.5,1191.5 701.5,1205.5C 699.833,1205.5 698.167,1205.5 696.5,1205.5C 696.5,1198.83 696.5,1192.17 696.5,1185.5C 688.833,1185.5 681.167,1185.5 673.5,1185.5C 673.5,1192.17 673.5,1198.83 673.5,1205.5C 671.833,1205.5 670.167,1205.5 668.5,1205.5C 668.5,1191.5 668.5,1177.5 668.5,1163.5 Z"/></g>
<g><path style="opacity:1" fill="#cfb40b" d="M 744.5,1163.5 C 746.5,1163.5 748.5,1163.5 750.5,1163.5C 750.5,1177.5 750.5,1191.5 750.5,1205.5C 748.5,1205.5 746.5,1205.5 744.5,1205.5C 744.5,1191.5 744.5,1177.5 744.5,1163.5 Z"/></g>
<g><path style="opacity:1" fill="#e2c301" d="M 1001.5,1163.5 C 1010.5,1163.5 1019.5,1163.5 1028.5,1163.5C 1028.5,1165.17 1028.5,1166.83 1028.5,1168.5C 1024.83,1168.5 1021.17,1168.5 1017.5,1168.5C 1017.5,1180.83 1017.5,1193.17 1017.5,1205.5C 1015.83,1205.5 1014.17,1205.5 1012.5,1205.5C 1012.5,1193.17 1012.5,1180.83 1012.5,1168.5C 1008.83,1168.5 1005.17,1168.5 1001.5,1168.5C 1001.5,1166.83 1001.5,1165.17 1001.5,1163.5 Z"/></g>
<g><path style="opacity:1" fill="#ddc004" d="M 1067.5,1163.5 C 1072.84,1163.33 1078.18,1163.5 1083.5,1164C 1092.9,1167.87 1095.4,1174.37 1091,1183.5C 1088.77,1185.7 1086.27,1187.53 1083.5,1189C 1087.5,1194.33 1091.5,1199.67 1095.5,1205C 1093.17,1205.67 1090.83,1205.67 1088.5,1205C 1085.29,1200.08 1081.96,1195.25 1078.5,1190.5C 1076.6,1189.53 1074.6,1189.2 1072.5,1189.5C 1072.5,1194.83 1072.5,1200.17 1072.5,1205.5C 1070.83,1205.5 1069.17,1205.5 1067.5,1205.5C 1067.5,1191.5 1067.5,1177.5 1067.5,1163.5 Z"/></g>
<g><path style="opacity:1" fill="#998613" d="M 1240.5,1163.5 C 1240.83,1173.85 1240.5,1184.19 1239.5,1194.5C 1238.89,1194.38 1238.56,1194.04 1238.5,1193.5C 1239.17,1183.5 1239.83,1173.5 1240.5,1163.5 Z"/></g>
<g><path style="opacity:1" fill="#907e15" d="M 1244.5,1163.5 C 1245.83,1178.01 1245.83,1192.67 1244.5,1207.5C 1243.89,1207.38 1243.56,1207.04 1243.5,1206.5C 1244.5,1192.34 1244.83,1178.01 1244.5,1163.5 Z"/></g>
<g><path style="opacity:1" fill="#d6b907" d="M 1525.5,1168.5 C 1522.17,1168.5 1518.83,1168.5 1515.5,1168.5C 1515.5,1180.83 1515.5,1193.17 1515.5,1205.5C 1513.5,1205.5 1511.5,1205.5 1509.5,1205.5C 1509.5,1193.17 1509.5,1180.83 1509.5,1168.5C 1506.17,1168.5 1502.83,1168.5 1499.5,1168.5C 1499.5,1167.17 1499.5,1165.83 1499.5,1164.5C 1508.17,1164.5 1516.83,1164.5 1525.5,1164.5C 1525.5,1165.83 1525.5,1167.17 1525.5,1168.5 Z"/></g>
<g><path style="opacity:1" fill="#cfb40a" d="M 1564.5,1163.5 C 1566.5,1163.5 1568.5,1163.5 1570.5,1163.5C 1570.5,1177.5 1570.5,1191.5 1570.5,1205.5C 1568.5,1205.5 1566.5,1205.5 1564.5,1205.5C 1564.5,1191.5 1564.5,1177.5 1564.5,1163.5 Z"/></g>
<g><path style="opacity:1" fill="#595023" d="M 477.5,1168.5 C 477.5,1173.5 477.5,1178.5 477.5,1183.5C 480.5,1183.5 483.5,1183.5 486.5,1183.5C 483.375,1184.48 480.042,1184.81 476.5,1184.5C 476.179,1178.97 476.512,1173.64 477.5,1168.5 Z"/></g>
<g><path style="opacity:1" fill="#33302d" d="M 477.5,1168.5 C 480.518,1168.34 483.518,1168.5 486.5,1169C 491.291,1170.41 493.124,1173.58 492,1178.5C 490.924,1181.08 489.091,1182.75 486.5,1183.5C 483.5,1183.5 480.5,1183.5 477.5,1183.5C 477.5,1178.5 477.5,1173.5 477.5,1168.5 Z"/></g>
<g><path style="opacity:1" fill="#312f2d" d="M 1072.5,1168.5 C 1075.85,1168.33 1079.18,1168.5 1082.5,1169C 1087.92,1172.2 1088.92,1176.54 1085.5,1182C 1081.45,1184.17 1077.12,1185.01 1072.5,1184.5C 1072.5,1179.17 1072.5,1173.83 1072.5,1168.5 Z"/></g>
<g><path style="opacity:1" fill="#322f2d" d="M 1626.5,1168.5 C 1643.12,1167.62 1649.96,1175.28 1647,1191.5C 1642.65,1199.91 1635.82,1202.75 1626.5,1200C 1618.36,1195.56 1615.2,1188.72 1617,1179.5C 1618.97,1174.7 1622.14,1171.04 1626.5,1168.5 Z"/></g>
<g><path style="opacity:1" fill="#35312d" d="M 1375.5,1186.5 C 1371.83,1187.83 1368.17,1187.83 1364.5,1186.5C 1366.32,1182.19 1368.15,1177.86 1370,1173.5C 1371.94,1177.82 1373.77,1182.15 1375.5,1186.5 Z"/></g>
<g><path style="opacity:1" fill="#3b362c" d="M 1149.5,1173.5 C 1152.27,1178.12 1154.27,1183.12 1155.5,1188.5C 1151.45,1188.82 1147.45,1188.49 1143.5,1187.5C 1145.51,1182.81 1147.51,1178.14 1149.5,1173.5 Z"/></g>
<g><path style="opacity:1" fill="#ac970e" d="M 1214.5,1175.5 C 1213.83,1185.5 1213.17,1195.5 1212.5,1205.5C 1212.17,1195.15 1212.5,1184.81 1213.5,1174.5C 1214.11,1174.62 1214.44,1174.96 1214.5,1175.5 Z"/></g>
<g><path style="opacity:1" fill="#5f5521" d="M 1701.5,1176.5 C 1700.83,1186.17 1700.17,1195.83 1699.5,1205.5C 1699.33,1195.16 1699.5,1184.83 1700,1174.5C 1700.72,1175.04 1701.22,1175.71 1701.5,1176.5 Z"/></g>
<g><path style="opacity:1" fill="#6a5f20" d="M 1364.5,1186.5 C 1368.17,1187.83 1371.83,1187.83 1375.5,1186.5C 1376.04,1186.56 1376.38,1186.89 1376.5,1187.5C 1372.17,1188.83 1367.83,1188.83 1363.5,1187.5C 1363.62,1186.89 1363.96,1186.56 1364.5,1186.5 Z"/></g>
<g><path style="opacity:1" fill="#a18c13" d="M 893.5,1184.5 C 893.5,1185.83 893.5,1187.17 893.5,1188.5C 898.214,1188.17 902.88,1188.51 907.5,1189.5C 907.376,1190.11 907.043,1190.44 906.5,1190.5C 902.03,1189.51 897.363,1189.18 892.5,1189.5C 892.216,1187.59 892.549,1185.92 893.5,1184.5 Z"/></g>
<g><path style="opacity:1" fill="#625921" d="M 482.5,1189.5 C 480.833,1189.5 479.167,1189.5 477.5,1189.5C 477.821,1195.03 477.488,1200.36 476.5,1205.5C 476.5,1199.83 476.5,1194.17 476.5,1188.5C 478.735,1188.21 480.735,1188.54 482.5,1189.5 Z"/></g>
<g><path style="opacity:1" fill="#938216" d="M 410.5,1185.5 C 410.5,1190.5 410.5,1195.5 410.5,1200.5C 416.833,1200.5 423.167,1200.5 429.5,1200.5C 429.784,1202.41 429.451,1204.08 428.5,1205.5C 428.5,1204.17 428.5,1202.83 428.5,1201.5C 422.167,1201.5 415.833,1201.5 409.5,1201.5C 409.179,1195.97 409.512,1190.64 410.5,1185.5 Z"/></g>
</svg>
